<svg width="25" height="25" viewBox="0 0 25 25" fill="none" xmlns="http://www.w3.org/2000/svg">
<g clip-path="url(#clip0_1685_606)">
<path d="M12.5 0C5.602 0 0 5.602 0 12.5C0 19.398 5.602 25 12.5 25C19.398 25 25 19.398 25 12.5C25 5.602 19.398 0 12.5 0ZM12.5 0.969C14.0147 0.967421 15.5149 1.2646 16.9146 1.84353C18.3143 2.42246 19.5861 3.27176 20.6572 4.34283C21.7282 5.4139 22.5775 6.68569 23.1565 8.08541C23.7354 9.48513 24.0326 10.9853 24.031 12.5C24.031 18.878 18.878 24.063 12.5 24.063C6.122 24.063 0.969 18.878 0.969 12.5C0.967421 10.9853 1.2646 9.48513 1.84353 8.08541C2.42246 6.68569 3.27176 5.4139 4.34283 4.34283C5.4139 3.27176 6.68569 2.42246 8.08541 1.84353C9.48513 1.2646 10.9853 0.967421 12.5 0.969ZM11 7C10.452 7 10 7.452 10 8V9H7V10H8V17C8 17.545 8.455 18 9 18H16C16.545 18 17 17.545 17 17V10H18V9H15V8C15 7.452 14.548 7 14 7H11ZM11 8H14V9H11V8ZM9 10H16V17H15V11H14V17H13V11H12V17H11V11H10V17H9V10Z" fill="#D85B53"/>
</g>
<defs>
<clipPath id="clip0_1685_606">
<rect width="25" height="25" fill="white"/>
</clipPath>
</defs>
</svg>
